<?xml version="1.0" encoding="UTF-8" standalone="no"?>
<svg
   xmlns:dc="http://purl.org/dc/elements/1.1/"
   xmlns:cc="http://creativecommons.org/ns#"
   xmlns:rdf="http://www.w3.org/1999/02/22-rdf-syntax-ns#"
   xmlns:svg="http://www.w3.org/2000/svg"
   xmlns="http://www.w3.org/2000/svg"
   xmlns:sodipodi="http://sodipodi.sourceforge.net/DTD/sodipodi-0.dtd"
   xmlns:inkscape="http://www.inkscape.org/namespaces/inkscape"
   width="191.99999999999997"
   height="191.99999999999997"
   version="1.1"
   id="svg1261"
   sodipodi:docname="app-logo.svg"
   inkscape:version="1.0.1 (3bc2e813f5, 2020-09-07)">
  <metadata
     id="metadata1267">
    <rdf:RDF>
      <cc:Work
         rdf:about="">
        <dc:format>image/svg+xml</dc:format>
        <dc:type
           rdf:resource="http://purl.org/dc/dcmitype/StillImage" />
        <dc:title></dc:title>
      </cc:Work>
    </rdf:RDF>
  </metadata>
  <defs
     id="defs1265" />
  <sodipodi:namedview
     pagecolor="#37474f"
     bordercolor="#666666"
     borderopacity="1"
     objecttolerance="10"
     gridtolerance="10"
     guidetolerance="10"
     inkscape:pageopacity="1"
     inkscape:pageshadow="2"
     inkscape:window-width="2560"
     inkscape:window-height="1417"
     id="namedview1263"
     showgrid="false"
     inkscape:pagecheckerboard="false"
     inkscape:showpageshadow="false"
     inkscape:zoom="5.34375"
     inkscape:cx="93.192982"
     inkscape:cy="96"
     inkscape:window-x="-8"
     inkscape:window-y="-8"
     inkscape:window-maximized="1"
     inkscape:current-layer="svg1261" />
  <g
     id="g2005">
    <g
       id="g1972"
       transform="translate(-2.5614035)">
      <path
         stroke="null"
         d="m 87.854176,60.135903 c -0.202984,3.270933 -0.731901,9.956627 -1.902825,16.187928 -0.459902,2.434641 -2.115087,4.460126 -4.4001,5.412988 -2.052163,0.85427 -4.262942,2.273414 -4.262942,4.40619 0,0.681154 0.134549,1.290394 0.373489,1.8341 H 46.199949 c 0.23894,-0.543706 0.373489,-1.152946 0.373489,-1.8341 0,-2.132776 -2.210489,-3.55192 -4.262942,-4.40619 -2.285303,-0.952862 -3.940198,-2.978347 -4.3972,-5.412988 -1.174114,-6.231591 -1.702741,-12.916995 -1.906015,-16.187928 -0.0896,-1.418854 0.229952,-2.834808 0.938074,-4.068657 5.269449,-9.158902 15.931008,-14.945379 15.931008,-14.945379 V 26.39484 h 18.111921 v 14.727317 c 0,0 10.661559,5.786477 15.928108,14.945379 0.710732,1.233559 1.027386,2.649513 0.937784,4.068367 z"
         fill="#80b4fb"
         id="svg_10"
         style="stroke-width:0.289976" />
      <path
         stroke="null"
         d="m 52.876363,31.099706 h 18.111921 v 5.356732 H 52.876363 Z"
         fill="#61a2f9"
         id="svg_11"
         style="stroke-width:0.289976" />
      <path
         stroke="null"
         d="m 57.948629,30.341707 v 10.77726 c 0,0 -7.692202,5.789377 -10.810897,14.948279 -0.421046,1.230659 -0.60924,2.649803 -0.555595,4.068657 0.12237,3.268033 0.433225,9.953437 1.129168,16.187928 0.268808,2.431741 1.248638,4.460126 2.604857,5.412988 1.212681,0.85427 2.521344,2.273414 2.521344,4.40619 0,0.681154 -0.07771,1.290394 -0.220962,1.8341 h -6.416595 c 0.23894,-0.543706 0.373489,-1.152946 0.373489,-1.8341 0,-2.132776 -2.210489,-3.55192 -4.262942,-4.40619 -2.285303,-0.952862 -3.940198,-2.981247 -4.3972,-5.412988 -1.177014,-6.231591 -1.702741,-12.919895 -1.906015,-16.187928 -0.0896,-1.418854 0.227052,-2.837998 0.938074,-4.068657 5.266549,-9.158902 15.931008,-14.948279 15.931008,-14.948279 v -8.400034 z"
         fill="#61a2f9"
         id="svg_12"
         style="stroke-width:0.289976" />
      <path
         stroke="null"
         d="M 68.897554,22.451742 H 54.965643 c -2.177143,0 -3.942228,1.765086 -3.942228,3.942228 v 6.325543 H 72.839782 V 26.39397 c 0,-2.177142 -1.765086,-3.942228 -3.942228,-3.942228 z"
         fill="#db5c6e"
         id="svg_13"
         style="stroke-width:0.289976" />
      <path
         stroke="null"
         d="m 62.779924,22.452902 c -2.176852,0 -3.942808,1.763056 -3.942808,3.939908 v 6.326703 H 51.023415 V 26.39281 c 0,-2.176852 1.765955,-3.939908 3.942807,-3.939908 z"
         fill="#d64553"
         id="svg_14"
         style="stroke-width:0.289976" />
      <path
         stroke="null"
         d="M 72.41289,34.894305 H 51.45017 c -1.20086,0 -2.17462,-0.97376 -2.17462,-2.17496 0,-1.20086 0.97376,-2.17462 2.17462,-2.17462 h 20.96272 c 1.2012,0 2.17496,0.97376 2.17496,2.17462 0,1.2012 -0.97376,2.17496 -2.17496,2.17496 z"
         fill="#db5c6e"
         id="svg_30" />
      <path
         stroke="null"
         d="m 57.98049,34.894305 h -6.53032 c -1.20324,0 -2.17462,-0.97444 -2.17462,-2.17496 0,-1.20018 0.97138,-2.17462 2.17462,-2.17462 h 6.53032 c -1.20324,0 -2.17496,0.97444 -2.17496,2.17462 0,1.20052 0.97172,2.17496 2.17496,2.17496 z"
         fill="#d64553"
         id="svg_31" />
    </g>
    <path
       stroke="null"
       d="m 123.84202,45.178695 c -3.83273,3.83239 -10.82882,17.12897 -10.82882,17.12897 l -0.53182,-0.23901 -22.16562,-10.00146 c -4.59131,-13.08412 -3.07415,-24.48051 1.4729,-24.48051 4.47487,0 9.32017,11.10358 9.4727,11.45018 -0.0627,-0.42117 -2.55118,-16.84195 4.92872,-16.84195 3.42075,0 5.29643,2.56889 6.32705,5.3887 1.25159,3.42927 1.25159,7.22931 1.25159,7.22931 0,0 5.66993,-12.88426 12.50191,-10.9902 6.82891,1.89372 1.40684,17.52324 -2.42861,21.35597 z"
       fill="#95d6a4"
       id="svg_1" />
    <path
       stroke="null"
       d="m 111.30709,57.593785 c 0.80965,1.76536 1.17702,3.24711 1.1743,4.47487 L 90.31577,52.067195 c -4.59131,-13.08412 -3.07415,-24.48051 1.4729,-24.48051 4.47487,0 9.32017,11.10358 9.4727,11.45018 -0.0626,-0.42117 -2.55118,-16.84195 4.92872,-16.84195 3.42075,0 5.29643,2.56889 6.32705,5.3887 l -0.003,0.0031 c -2.62915,-5.39211 -10.30312,10.15093 -1.20733,30.00711 z"
       fill="#78c2a4"
       id="svg_2" />
    <ellipse
       stroke="null"
       cx="31.638754"
       cy="141.2523"
       fill="#e49542"
       rx="55.302597"
       ry="28.366127"
       transform="rotate(-45)"
       id="svg_4"
       style="stroke-width:0.289933" />
    <g
       stroke="null"
       fill="#e28424"
       id="svg_5"
       transform="matrix(0.28997631,0,0,0.28997631,33.265996,29.015801)">
      <path
         stroke="null"
         d="m 172.06125,302.08158 c -38.207,-38.207 -8.792,-129.568 65.691,-204.052 74.49,-74.491 165.852,-103.905 204.059,-65.698 -16.084,-16.084 -89.511,31.265 -164.002,105.756 -74.484,74.483 -121.833,147.91 -105.748,163.994 z"
         id="svg_6" />
      <path
         stroke="null"
         d="m 402.51525,127.76058 -56.132,-56.132 c -6.465,-6.465 -16.947,-6.465 -23.413,0 -6.465,6.465 -6.465,16.947 0,23.413 l 56.132,56.132 c 6.465,6.465 16.947,6.465 23.413,0 6.465,-6.465 6.465,-16.947 0,-23.413 z"
         id="svg_7" />
      <path
         stroke="null"
         d="m 338.33925,191.93658 -56.132,-56.132 c -6.465,-6.465 -16.947,-6.465 -23.413,0 -6.465,6.465 -6.465,16.947 0,23.413 l 56.132,56.132 c 6.465,6.465 16.947,6.465 23.413,0 6.465,-6.465 6.465,-16.947 0,-23.413 z"
         id="svg_8" />
    </g>
    <path
       id="svg_15"
       d="m 30.296062,101.39884 c 0,0 0.131024,4.35574 0.564454,11.13086 0.62715,9.78321 1.881423,24.61189 4.277343,38.6582 1.83108,10.74234 11.110223,18.61719 22.007813,18.61719 h 77.710938 c 10.89759,0 20.17478,-7.8752 22.00586,-18.61719 2.39592,-14.0463 3.65018,-28.87498 4.27734,-38.6582 0.43309,-6.77512 0.56641,-11.13086 0.56641,-11.13086 z m 35.94336,20.06836 h 0.140625 c 3.896412,0.009 7.076789,3.15248 7.193359,7.04687 0.181526,6.05847 0.181526,10.11731 0,16.17578 -0.11686,3.89438 -3.297237,7.03788 -7.193359,7.04687 h -0.140625 c -3.896121,-0.009 -7.074546,-3.1525 -7.191406,-7.04687 -0.181525,-6.05847 -0.181525,-10.11731 0,-16.17578 0.11686,-3.89439 3.295285,-7.03787 7.191406,-7.04687 z m 29.691406,0 h 0.140625 c 3.896127,0.009 7.074547,3.15248 7.191407,7.04687 0.18152,6.05847 0.18152,10.11731 0,16.17578 -0.11686,3.89438 -3.29528,7.03788 -7.191407,7.04687 h -0.140625 c -3.896122,-0.009 -7.076498,-3.1525 -7.193359,-7.04687 -0.181525,-6.05847 -0.181525,-10.11731 0,-16.17578 0.116861,-3.89439 3.297237,-7.03787 7.193359,-7.04687 z m 29.689452,0 h 0.14063 c 3.89612,0.009 7.0765,3.15248 7.19336,7.04687 0.18153,6.05847 0.18153,10.11731 0,16.17578 -0.11686,3.89438 -3.29724,7.03788 -7.19336,7.04687 h -0.14063 c -3.89612,-0.009 -7.07454,-3.1525 -7.19141,-7.04687 -0.18152,-6.05847 -0.18152,-10.11731 0,-16.17578 0.11686,-3.89439 3.29529,-7.03787 7.19141,-7.04687 z"
       style="fill:#db5c6e;fill-opacity:1"
       sodipodi:nodetypes="cccssccccccccccccccccccccccccccccccc" />
    <path
       stroke="null"
       d="m 161.70526,101.399 c 0,0 -0.13142,4.35536 -0.56451,11.13048 -0.69014,0.14913 -1.40106,0.23323 -2.12695,0.24787 -42.00988,0.80659 -84.01704,0.80659 -126.02692,0 -0.72589,-0.015 -1.43681,-0.0987 -2.12695,-0.24787 C 30.42685,105.75436 30.29542,101.399 30.29542,101.399 h 131.40983 z"
       fill="#d64553"
       id="svg_16" />
    <path
       stroke="null"
       d="m 66.74636,169.80456 h -9.6014 c -10.89759,0 -20.17588,-7.87417 -22.00696,-18.61651 -4.0537,-23.76994 -4.84224,-49.78907 -4.84224,-49.78907 h 16.23556 c 0,0 0.59447,26.01912 3.64445,49.78873 1.38029,10.74233 8.36446,18.61685 16.57059,18.61685 z"
       fill="#d64553"
       id="svg_17" />
    <path
       stroke="null"
       d="m 116.08736,53.453945 c -15.16681,-1.63088 -30.33362,-1.82188 -45.50077,-0.5737 -2.01425,0.16615 -2.76704,1.61896 -4.78129,1.8355 -1.88998,16.79428 -3.15178,32.32676 -1.2618,49.121045 17.1814,1.84742 34.36281,1.84742 51.54421,0 1.88964,-16.794275 1.88964,-33.588565 -3.4e-4,-50.382845 z"
       fill="#ededed"
       id="svg_18" />
    <path
       stroke="null"
       d="m 70.58658,104.41049 c -2.01323,-0.1641 -4.02987,-0.35545 -6.0431,-0.57335 -1.891,-16.794625 -1.891,-33.588915 0,-50.383195 2.01323,-0.21518 4.02987,-0.40619 6.0431,-0.5737 -1.86683,17.17698 -1.86683,34.35361 0,51.530245 z"
       fill="#dbdbdb"
       id="svg_19" />
    <path
       stroke="null"
       d="m 159.01278,106.71348 c -42.00818,0.80727 -84.01602,0.80727 -126.02453,0 -5.22289,-0.10045 -9.68175,-3.81844 -10.7202,-8.938505 -0.66835,-3.29376 -0.66835,-6.58752 0,-9.88127 1.03845,-5.12007 5.49697,-8.83806 10.7202,-8.9385 42.00818,-0.80727 84.01602,-0.80727 126.02453,0 5.22289,0.10044 9.68141,3.81843 10.7202,8.9385 0.66801,3.29376 0.66801,6.58752 0,9.88127 -1.03879,5.120065 -5.49731,8.838055 -10.7202,8.938505 z"
       fill="#ffd064"
       id="svg_20" />
    <path
       stroke="null"
       d="m 43.72547,106.8987 c -3.57839,-0.0538 -7.16019,-0.11679 -10.73927,-0.18522 -5.22187,-0.10146 -9.68175,-3.81809 -10.71816,-8.938165 -0.66937,-3.29478 -0.66937,-6.58683 0,-9.88161 1.03641,-5.12007 5.49629,-8.83942 10.71816,-8.93816 3.57874,-0.06878 7.16054,-0.13108 10.73927,-0.18522 -4.26275,1.05752 -7.6532,4.48678 -8.5524,8.93509 -0.69593,3.42041 -0.69593,6.83776 0,10.25511 0.8992,4.447975 4.28999,7.880645 8.5524,8.938165 z"
       fill="#ffc250"
       id="svg_21" />
    <path
       stroke="null"
       d="m 58.50176,88.883125 c -1.5747,-0.79569 -3.2209,-1.39527 -4.93859,-1.79771 -3.54741,-0.8311 -7.15611,1.12731 -8.48703,4.51879 -6.6454,16.935575 -12.86588,34.026085 -18.66111,51.271155 -1.16034,3.45344 0.34524,7.27323 3.59678,8.9167 1.57436,0.7957 3.22056,1.39528 4.93859,1.79771 3.54707,0.8311 7.15611,-1.12731 8.48669,-4.51879 6.6454,-16.93557 12.86588,-34.02608 18.66111,-51.271145 1.16068,-3.45378 -0.3449,-7.27357 -3.59644,-8.91671 z"
       fill="#fcf1d3"
       id="svg_26"
       style="fill:#fee8b6;fill-opacity:1" />
    <path
       stroke="null"
       d="m 32.06113,152.70079 c -0.69763,-0.26693 -1.38199,-0.56996 -2.05034,-0.90873 -3.25222,-1.64143 -4.75712,-5.46361 -3.59576,-8.91603 5.79625,-17.24405 12.01605,-34.33387 18.66111,-51.271835 1.32956,-3.39147 4.93859,-5.34887 8.48601,-4.51879 0.72964,0.17024 1.44498,0.37963 2.14772,0.62273 -2.30536,0.61388 -4.27773,2.30263 -5.19974,4.65328 -6.92356,17.650585 -13.40485,35.459145 -19.4459,53.427725 -0.80556,2.39592 -0.37827,4.96107 0.99691,6.91165 z"
       fill="#fee8b6"
       id="svg_27"
       style="fill:#fcdf9c;fill-opacity:1" />
    <path
       stroke="null"
       d="m 138.43854,87.084395 c -1.7177,0.40244 -3.3639,1.00134 -4.93859,1.79737 -3.25154,1.64347 -4.75712,5.46327 -3.59644,8.91671 5.79523,17.245415 12.01571,34.335575 18.66111,51.271485 1.33058,3.39147 4.93927,5.34955 8.48669,4.51879 1.7177,-0.40278 3.3639,-1.00168 4.93859,-1.79771 3.25154,-1.64313 4.75712,-5.46327 3.59644,-8.91671 -5.79557,-17.24541 -12.01571,-34.33557 -18.66111,-51.271485 -1.33058,-3.39147 -4.93927,-5.34989 -8.48669,-4.51845 z"
       fill="#fcf1d3"
       id="svg_28"
       style="fill:#fee8b6;fill-opacity:1" />
    <path
       stroke="null"
       d="m 159.20549,152.96703 c -0.70581,0.24413 -1.42489,0.45147 -2.15453,0.62172 -3.54639,0.83313 -7.15611,-1.12731 -8.48601,-4.51845 -6.64369,-16.93559 -12.86418,-34.0254 -18.66145,-51.271835 -1.16136,-3.45276 0.3449,-7.27187 3.5961,-8.91637 0.66835,-0.33877 1.35101,-0.63805 2.04592,-0.90362 -1.37212,1.95229 -1.79703,4.51334 -0.99283,6.90688 6.04207,17.971315 12.52404,35.779865 19.44624,53.427725 0.92303,2.35337 2.89915,4.04382 5.20655,4.65396 z"
       fill="#fee8b6"
       id="svg_29"
       style="fill:#fcdf9c;fill-opacity:1" />
  </g>
</svg>
