<svg width="191.99999999999997" height="191.99999999999997" xmlns="http://www.w3.org/2000/svg">
 <g>
  <title>background</title>
  <rect x="-1" y="-1" width="194" height="194" id="canvas_background" fill="#325D79"/>
 </g>

 <g>
  <title>Layer 1</title>
  <g stroke="null" id="svg_32">
   <path stroke="null" d="m124.92877,44.59041c-3.83273,3.83239 -10.82882,17.12897 -10.82882,17.12897l-0.53182,-0.23901l-22.16562,-10.00146c-4.59131,-13.08412 -3.07415,-24.48051 1.4729,-24.48051c4.47487,0 9.32017,11.10358 9.4727,11.45018c-0.06265,-0.42117 -2.55118,-16.84195 4.92872,-16.84195c3.42075,0 5.29643,2.56889 6.32705,5.3887c1.25159,3.42927 1.25159,7.22931 1.25159,7.22931c0,0 5.66993,-12.88426 12.50191,-10.9902c6.82891,1.89372 1.40684,17.52324 -2.42861,21.35597z" fill="#95d6a4" id="svg_1"/>
   <path stroke="null" d="m112.39384,57.0055c0.80965,1.76536 1.17702,3.24711 1.1743,4.47487l-22.16562,-10.00146c-4.59131,-13.08412 -3.07415,-24.48051 1.4729,-24.48051c4.47487,0 9.32017,11.10358 9.4727,11.45018c-0.06265,-0.42117 -2.55118,-16.84195 4.92872,-16.84195c3.42075,0 5.29643,2.56889 6.32705,5.3887l-0.00272,0.00306c-2.62915,-5.39211 -10.30312,10.15093 -1.20733,30.00711z" fill="#78c2a4" id="svg_2"/>
   <g stroke="null" transform="matrix(0.28997631094378234,0,0,0.28997631094378234,38.352746426951526,26.427516076272276) " id="svg_3">
    <ellipse stroke="null" cx="335.38759" cy="134.7098" fill="#e49542" rx="190.743" ry="97.837" transform="matrix(0.707,-0.707,0.707,0.707,-25.484,309.109) " id="svg_4"/>
    <g stroke="null" fill="#e28424" id="svg_5">
     <path stroke="null" d="m172.06125,302.08158c-38.207,-38.207 -8.792,-129.568 65.691,-204.052c74.49,-74.491 165.852,-103.905 204.059,-65.698c-16.084,-16.084 -89.511,31.265 -164.002,105.756c-74.484,74.483 -121.833,147.91 -105.748,163.994z" id="svg_6"/>
     <path stroke="null" d="m402.51525,127.76058l-56.132,-56.132c-6.465,-6.465 -16.947,-6.465 -23.413,0c-6.465,6.465 -6.465,16.947 0,23.413l56.132,56.132c6.465,6.465 16.947,6.465 23.413,0c6.465,-6.465 6.465,-16.947 0,-23.413z" id="svg_7"/>
     <path stroke="null" d="m338.33925,191.93658l-56.132,-56.132c-6.465,-6.465 -16.947,-6.465 -23.413,0c-6.465,6.465 -6.465,16.947 0,23.413l56.132,56.132c6.465,6.465 16.947,6.465 23.413,0c6.465,-6.465 6.465,-16.947 0,-23.413z" id="svg_8"/>
    </g>
   </g>
   <g stroke="null" transform="matrix(0.28997631094378234,0,0,0.28997631094378234,38.352746426951526,26.427516076272276) " id="svg_9">
    <path stroke="null" d="m174.45625,114.21658c-0.7,11.28 -2.524,34.336 -6.562,55.825c-1.586,8.396 -7.294,15.381 -15.174,18.667c-7.077,2.946 -14.701,7.84 -14.701,15.195c0,2.349 0.464,4.45 1.288,6.325l-108.498,0c0.824,-1.875 1.288,-3.976 1.288,-6.325c0,-7.355 -7.623,-12.249 -14.701,-15.195c-7.881,-3.286 -13.588,-10.271 -15.164,-18.667c-4.049,-21.49 -5.872,-44.545 -6.573,-55.825c-0.309,-4.893 0.793,-9.776 3.235,-14.031c18.172,-31.585 54.939,-51.54 54.939,-51.54l0,-50.787l62.46,0l0,50.788s36.767,19.955 54.929,51.54c2.451,4.254 3.543,9.137 3.234,14.03z" fill="#80b4fb" id="svg_10"/>
    <path stroke="null" d="m53.83325,14.08358l62.46,0l0,18.473l-62.46,0l0,-18.473z" fill="#61a2f9" id="svg_11"/>
    <path stroke="null" d="m71.32525,11.46958l0,37.166s-26.527,19.965 -37.282,51.55c-1.452,4.244 -2.101,9.138 -1.916,14.031c0.422,11.27 1.494,34.325 3.894,55.825c0.927,8.386 4.306,15.381 8.983,18.667c4.182,2.946 8.695,7.84 8.695,15.195c0,2.349 -0.268,4.45 -0.762,6.325l-22.128,0c0.824,-1.875 1.288,-3.976 1.288,-6.325c0,-7.355 -7.623,-12.249 -14.701,-15.195c-7.881,-3.286 -13.588,-10.281 -15.164,-18.667c-4.059,-21.49 -5.872,-44.555 -6.573,-55.825c-0.309,-4.893 0.783,-9.787 3.235,-14.031c18.162,-31.585 54.939,-51.55 54.939,-51.55l0,-28.968l17.492,-8.198z" fill="#61a2f9" id="svg_12"/>
    <path stroke="null" d="m109.08325,-15.73942l-48.045,0c-7.508,0 -13.595,6.087 -13.595,13.595l0,21.814l75.235,0l0,-21.814c0,-7.508 -6.087,-13.595 -13.595,-13.595z" fill="#db5c6e" id="svg_13"/>
    <path stroke="null" d="m87.98625,-15.73542c-7.507,0 -13.597,6.08 -13.597,13.587l0,21.818l-26.946,0l0,-21.818c0,-7.507 6.09,-13.587 13.597,-13.587l26.946,0z" fill="#d64553" id="svg_14"/>
   </g>
   <path stroke="null" d="m162.79201,100.81071c0,0 -0.13142,4.35536 -0.56451,11.13048c-0.62716,9.78322 -1.88181,24.61194 -4.27773,38.65824c-1.83108,10.74199 -11.10971,18.61651 -22.0073,18.61651l-77.71075,0c-10.89759,0 -20.17588,-7.87417 -22.00696,-18.61651c-2.39592,-14.04631 -3.65058,-28.87503 -4.27773,-38.65824c-0.43343,-6.77512 -0.56451,-11.13048 -0.56451,-11.13048l131.40949,0z" fill="#db5c6e" id="svg_15"/>
   <path stroke="null" d="m162.79201,100.81071c0,0 -0.13142,4.35536 -0.56451,11.13048c-0.69014,0.14913 -1.40106,0.23323 -2.12695,0.24787c-42.00988,0.80659 -84.01704,0.80659 -126.02692,0c-0.72589,-0.01498 -1.43681,-0.09874 -2.12695,-0.24787c-0.43308,-6.77512 -0.56451,-11.13048 -0.56451,-11.13048l131.40983,0z" fill="#d64553" id="svg_16"/>
   <path stroke="null" d="m67.83311,169.21627l-9.6014,0c-10.89759,0 -20.17588,-7.87417 -22.00696,-18.61651c-4.0537,-23.76994 -4.84224,-49.78906 -4.84224,-49.78906l16.23556,0c0,0 0.59447,26.01912 3.64445,49.78872c1.38029,10.74233 8.36446,18.61685 16.57059,18.61685z" fill="#d64553" id="svg_17"/>
   <path stroke="null" d="m117.17411,52.86566c-15.16681,-1.63088 -30.33362,-1.82188 -45.50077,-0.5737c-2.01425,0.16615 -2.76704,1.61896 -4.78129,1.8355c-1.88998,16.79428 -3.15178,32.32676 -1.2618,49.12105c17.1814,1.84742 34.36281,1.84742 51.54421,0c1.88964,-16.79428 1.88964,-33.58857 -0.00034,-50.38285z" fill="#ededed" id="svg_18"/>
   <path stroke="null" d="m71.67333,103.82221c-2.01323,-0.16411 -4.02987,-0.35546 -6.0431,-0.57336c-1.891,-16.79462 -1.891,-33.58891 0,-50.38319c2.01323,-0.21518 4.02987,-0.40619 6.0431,-0.5737c-1.86683,17.17698 -1.86683,34.35361 0,51.53025z" fill="#dbdbdb" id="svg_19"/>
   <path stroke="null" d="m160.09953,106.12519c-42.00818,0.80727 -84.01602,0.80727 -126.02453,0c-5.22289,-0.10044 -9.68175,-3.81843 -10.7202,-8.9385c-0.66835,-3.29376 -0.66835,-6.58752 0,-9.88127c1.03845,-5.12007 5.49697,-8.83806 10.7202,-8.9385c42.00818,-0.80727 84.01602,-0.80727 126.02453,0c5.22289,0.10044 9.68141,3.81843 10.7202,8.9385c0.66801,3.29376 0.66801,6.58752 0,9.88127c-1.03879,5.12007 -5.49731,8.83806 -10.7202,8.9385z" fill="#ffd064" id="svg_20"/>
   <path stroke="null" d="m44.81222,106.31041c-3.57839,-0.0538 -7.16019,-0.11678 -10.73927,-0.18522c-5.22187,-0.10146 -9.68175,-3.81809 -10.71816,-8.93816c-0.66937,-3.29478 -0.66937,-6.58683 0,-9.88161c1.03641,-5.12007 5.49629,-8.83942 10.71816,-8.93816c3.57874,-0.06878 7.16054,-0.13108 10.73927,-0.18522c-4.26275,1.05752 -7.6532,4.48678 -8.5524,8.93509c-0.69593,3.42041 -0.69593,6.83776 0,10.25511c0.8992,4.44797 4.28999,7.88064 8.5524,8.93816z" fill="#ffc250" id="svg_21"/>
   <g stroke="null" fill="#365e7d" transform="matrix(0.28997631094378234,0,0,0.28997631094378234,38.352746426951526,26.427516076272276) " id="svg_22">
    <path stroke="null" d="m100.40225,318.82658c-0.161,0 -0.322,0 -0.484,0c-13.436,0.032 -24.4,10.87 -24.803,24.3c-0.626,20.893 -0.626,41.786 0,62.679c0.403,13.43 11.367,24.268 24.803,24.3l0.484,0c13.436,-0.032 24.4,-10.87 24.803,-24.3c0.626,-20.893 0.626,-41.786 0,-62.679c-0.402,-13.43 -11.366,-24.268 -24.803,-24.3z" id="svg_23"/>
    <path stroke="null" d="m202.79125,318.82658c-0.161,0 -0.322,0 -0.484,0c-13.436,0.032 -24.4,10.87 -24.803,24.3c-0.626,20.893 -0.626,41.786 0,62.679c0.403,13.43 11.367,24.268 24.803,24.3l0.484,0c13.436,-0.032 24.4,-10.87 24.803,-24.3c0.626,-20.893 0.626,-41.786 0,-62.679c-0.403,-13.43 -11.367,-24.268 -24.803,-24.3z" id="svg_24"/>
    <path stroke="null" d="m305.18025,318.82658c-0.161,0 -0.322,0 -0.484,0c-13.436,0.032 -24.4,10.87 -24.803,24.3c-0.626,20.893 -0.626,41.786 0,62.679c0.403,13.43 11.367,24.268 24.803,24.3l0.484,0c13.436,-0.032 24.4,-10.87 24.803,-24.3c0.626,-20.893 0.626,-41.786 0,-62.679c-0.403,-13.43 -11.367,-24.268 -24.803,-24.3z" id="svg_25"/>
   </g>
   <path stroke="null" d="m59.58851,88.29484c-1.5747,-0.79569 -3.2209,-1.39527 -4.93859,-1.79771c-3.54741,-0.8311 -7.15611,1.12731 -8.48703,4.51879c-6.6454,16.93558 -12.86588,34.02608 -18.66111,51.27115c-1.16034,3.45344 0.34524,7.27323 3.59678,8.91671c1.57436,0.79569 3.22056,1.39527 4.93859,1.79771c3.54707,0.8311 7.15611,-1.12731 8.48669,-4.51879c6.6454,-16.93558 12.86588,-34.02608 18.66111,-51.27115c1.16068,-3.45378 -0.3449,-7.27357 -3.59644,-8.91671z" fill=" rgb(252, 241, 211)" id="svg_26"/>
   <path stroke="null" d="m33.14788,152.1125c-0.69763,-0.26693 -1.38199,-0.56996 -2.05034,-0.90873c-3.25222,-1.64143 -4.75712,-5.46361 -3.59576,-8.91603c5.79625,-17.24405 12.01605,-34.33387 18.66111,-51.27183c1.32956,-3.39147 4.93859,-5.34887 8.48601,-4.51879c0.72964,0.17024 1.44498,0.37963 2.14772,0.62273c-2.30536,0.61388 -4.27773,2.30263 -5.19974,4.65328c-6.92356,17.65058 -13.40485,35.45914 -19.4459,53.42772c-0.80556,2.39592 -0.37827,4.96107 0.99691,6.91165z" fill=" rgb(254, 232, 182)" id="svg_27"/>
   <path stroke="null" d="m139.52529,86.49611c-1.7177,0.40244 -3.3639,1.00134 -4.93859,1.79737c-3.25154,1.64347 -4.75712,5.46327 -3.59644,8.91671c5.79523,17.24541 12.01571,34.33557 18.66111,51.27149c1.33058,3.39147 4.93927,5.34955 8.48669,4.51879c1.7177,-0.40278 3.3639,-1.00168 4.93859,-1.79771c3.25154,-1.64313 4.75712,-5.46327 3.59644,-8.91671c-5.79557,-17.24541 -12.01571,-34.33557 -18.66111,-51.27149c-1.33058,-3.39147 -4.93927,-5.34989 -8.48669,-4.51845z" fill=" rgb(252, 241, 211)" id="svg_28"/>
   <path stroke="null" d="m160.29224,152.37875c-0.70581,0.24412 -1.42489,0.45147 -2.15453,0.62171c-3.54639,0.83314 -7.15611,-1.12731 -8.48601,-4.51845c-6.64369,-16.93558 -12.86418,-34.0254 -18.66145,-51.27183c-1.16136,-3.45276 0.3449,-7.27187 3.5961,-8.91637c0.66835,-0.33877 1.35101,-0.63805 2.04592,-0.90362c-1.37212,1.95229 -1.79703,4.51334 -0.99283,6.90688c6.04207,17.97131 12.52404,35.77986 19.44624,53.42772c0.92303,2.35337 2.89915,4.04382 5.20655,4.65396z" fill=" rgb(254, 232, 182)" id="svg_29"/>
   <path stroke="null" d="m73.49964,34.30602l-20.96272,0c-1.20086,0 -2.17462,-0.97376 -2.17462,-2.17496c0,-1.20086 0.97376,-2.17462 2.17462,-2.17462l20.96272,0c1.2012,0 2.17496,0.97376 2.17496,2.17462c0,1.2012 -0.97376,2.17496 -2.17496,2.17496z" fill="#db5c6e" id="svg_30"/>
   <path stroke="null" d="m59.06724,34.30602l-6.53032,0c-1.20324,0 -2.17462,-0.97444 -2.17462,-2.17496c0,-1.20018 0.97138,-2.17462 2.17462,-2.17462l6.53032,0c-1.20324,0 -2.17496,0.97444 -2.17496,2.17462c0,1.20052 0.97172,2.17496 2.17496,2.17496z" fill="#d64553" id="svg_31"/>
  </g>
 </g>
</svg>