<svg width="132" height="132" xmlns="http://www.w3.org/2000/svg">

 <metadata id="metadata13886">image/svg+xml</metadata>
 <g>
  <title>background</title>
  <rect fill="none" id="canvas_background" height="134" width="134" y="-1" x="-1"/>
 </g>
 <g>
  <title>Layer 1</title>
  <g id="svg_1">
   <g transform="matrix(1.25,0,0,-1.25,236.36692,372.40647) " id="g1666">
    <path fill="#0066b3" fill-rule="nonzero" id="path1668" d="m-187.72003,296.54117l102.853,0c-3.87,-33.748 -3.87,-68.382 0,-102.832l-102.853,0c3.69,32.692 4.692,66.214 0,102.832"/>
   </g>
   <g transform="matrix(1.25,0,0,-1.25,256.68192,431.40897) " id="g1670">
    <path fill="#ffffff" fill-rule="nonzero" id="path1672" d="m-187.72003,296.54117l-0.415,0l0,4.686l1.007,0c1.511,0 2.726,-0.869 2.726,-2.263c-0.03,-1.87 -1.423,-2.449 -3.318,-2.449l0,0.026zm1.186,-8.002l-1.571,0l0,5.106l1.423,0c1.688,0 2.991,-0.947 2.991,-2.473c0,-1.631 -0.978,-2.633 -2.843,-2.633m-7.394,15.556c0,0 1.408,-0.72 1.408,-1.473l0,-15.473c0,0 -0.276,-1.099 -1.125,-1.479l8.828,0c3.585,0 5.777,2.501 5.777,5.555c0,2.237 -1.215,3.316 -3.171,4.527c1.719,1.131 2.342,1.947 2.342,3.895c0,2.895 -2.933,4.448 -5.926,4.448"/>
   </g>
   <g transform="matrix(1.25,0,0,-1.25,248.92317,421.96517) " id="g1674">
    <path fill="none" stroke="#ffffff" stroke-width="0.017" stroke-miterlimit="3.864" id="path1676" d="m-187.72003,296.54117c0,0 1.409,-0.721 1.409,-1.473l0,-15.474c0,0 -0.278,-1.098 -1.126,-1.478l8.828,0c3.584,0 5.777,2.501 5.777,5.553c0,2.238 -1.215,3.318 -3.171,4.529c1.718,1.131 2.341,1.947 2.341,3.894c0,2.896 -2.932,4.449 -5.925,4.449l-8.133,0z"/>
    <g id="g1678">
     <path fill="none" stroke="#ffffff" stroke-width="0.017" stroke-miterlimit="3.864" id="path1680" d="m-180.32703,280.98417l-1.57,0l0,5.106l1.422,0c1.689,0 2.991,-0.947 2.991,-2.473c0,-1.631 -0.978,-2.633 -2.843,-2.633z"/>
     <g id="g1682">
      <path fill="none" stroke="#ffffff" stroke-width="0.017" stroke-miterlimit="3.864" id="path1684" d="m-181.51303,288.98617l-0.415,0l0,4.686l1.007,0c1.511,0 2.726,-0.869 2.726,-2.263c-0.03,-1.87 -1.423,-2.449 -3.318,-2.449l0,0.026z"/>
     </g>
    </g>
   </g>
   <g transform="matrix(1.25,0,0,-1.25,303.09067,442.03147) " id="g1686">
    <path fill="#ffffff" fill-rule="nonzero" id="path1688" d="m-187.72003,296.54117l-0.909,0l0,12.18c1.266,-0.128 2.274,0.026 3.474,-0.542c2.241,-1.031 2.532,-3.614 2.532,-5.47c0,-2.814 -0.615,-6.168 -5.097,-6.168m-6.845,15.173c0,0 1.194,-0.773 1.194,-1.419l0,-15.323c0,-0.492 -1.388,-1.269 -1.388,-1.269l8.533,0c5.652,0 8.507,4.722 8.507,8.669c0,5.162 -2.076,8.93 -9.189,9.342c-0.715,0.027 -1.462,0.027 -2.21,0.027l-1.655,0c-0.877,0 -1.754,-0.027 -2.63,-0.027"/>
   </g>
   <g transform="matrix(1.25,0,0,-1.25,294.53442,423.06517) " id="g1690">
    <path fill="none" stroke="#ffffff" stroke-width="0.012" stroke-miterlimit="3.864" id="path1692" d="m-187.72003,296.54117c0,0 1.194,-0.774 1.194,-1.419l0,-15.325c0,-0.491 -1.388,-1.267 -1.388,-1.267l8.533,0c5.651,0 8.507,4.722 8.507,8.669c0,5.162 -2.076,8.929 -9.189,9.342c-0.715,0.026 -1.462,0.026 -2.21,0.026l-1.655,0c-0.877,0 -1.754,-0.026 -2.63,-0.026l-1.162,0z"/>
    <g id="g1694">
     <path fill="none" stroke="#ffffff" stroke-width="0.012" stroke-miterlimit="3.864" id="path1696" d="m-180.87503,281.36817l-0.909,0l0,12.18c1.266,-0.128 2.274,0.026 3.474,-0.542c2.241,-1.031 2.532,-3.614 2.532,-5.47c0,-2.814 -0.615,-6.168 -5.097,-6.168z"/>
    </g>
   </g>
   <g transform="matrix(1.25,0,0,-1.25,278.51442,423.03267) " id="g1698">
    <path fill="#ffffff" fill-rule="nonzero" id="path1700" d="m-187.72003,296.54117l-6.748,0c0,0 0.96,-0.561 0.96,-1.106l0,-2.355c0,-1.945 0.031,-3.89 0.031,-5.834c0.033,-2.502 -0.384,-5.358 1.86,-7.377c1.446,-1.289 3.562,-1.87 5.711,-1.87c7.444,0 7.957,3.889 7.957,8.69c0.029,2.875 0.007,5.75 0.002,8.625c0,0.907 0.922,0.817 0.922,1.227l-6.902,0c0,0 0.941,-0.441 0.941,-1.137l0,-11.67c0,-1.314 -0.899,-2.552 -2.728,-2.552c-2.02,0 -2.823,1.263 -2.823,2.678l0,11.638c0,0.662 0.817,1.043 0.817,1.043"/>
   </g>
   <g transform="matrix(1.25,0,0,-1.25,278.51442,423.03267) " id="g1702">
    <path fill="none" stroke="#ffffff" stroke-width="0.011" stroke-miterlimit="3.864" id="path1704" d="m-187.72003,296.54117l-6.748,0c0,0 0.96,-0.561 0.96,-1.106l0,-2.355c0,-1.945 0.031,-3.89 0.031,-5.834c0.033,-2.502 -0.384,-5.358 1.86,-7.377c1.446,-1.289 3.562,-1.87 5.711,-1.87c7.444,0 7.957,3.889 7.957,8.69c0.029,2.875 0.007,5.75 0.002,8.625c0,0.907 0.922,0.817 0.922,1.227l-6.902,0c0,0 0.941,-0.441 0.941,-1.137l0,-11.67c0,-1.314 -0.899,-2.552 -2.728,-2.552c-2.02,0 -2.823,1.263 -2.823,2.678l0,11.638c0,0.662 0.817,1.043 0.817,1.043z"/>
   </g>
   <g transform="matrix(1.25,0,0,-1.25,343.36817,423.03267) " id="g1706">
    <path fill="#ffffff" fill-rule="nonzero" id="path1708" d="m-187.72003,296.54117c0,0 1.014,-0.494 1.014,-0.99l0,-15.987c0,0 -0.073,-0.737 -0.81,-1.08l6.924,0c0,0 -0.935,0.65 -0.935,1.081l0,15.925c0,0.65 1.016,1.051 1.016,1.051"/>
   </g>
   <g transform="matrix(1.25,0,0,-1.25,343.36817,423.03267) " id="g1710">
    <path fill="none" stroke="#ffffff" stroke-width="0.015" stroke-miterlimit="3.864" id="path1712" d="m-187.72003,296.54117c0,0 1.014,-0.494 1.014,-0.99l0,-15.987c0,0 -0.073,-0.737 -0.81,-1.08l6.924,0c0,0 -0.935,0.65 -0.935,1.081l0,15.925c0,0.65 1.016,1.051 1.016,1.051l-7.209,0z"/>
   </g>
   <g transform="matrix(1.25,0,0,-1.25,319.33692,422.05397) " id="g1714">
    <path fill="#ffffff" fill-rule="nonzero" id="path1716" d="m-187.72003,296.54117l11.116,-9.881l0,6.284c0,1.288 -1.41,2.817 -1.41,2.817l7.36,0c-1.527,-1.156 -1.388,-2.532 -1.388,-2.532l0.002,-17.044l-10.89,9.948l0.01,-6.08c0,-1.338 1.172,-2.285 1.172,-2.285l-7.041,0c1.343,0.894 1.068,2.527 1.068,2.527"/>
   </g>
   <g transform="matrix(1.25,0,0,-1.25,319.33692,422.05397) " id="g1718">
    <path fill="none" stroke="#ffffff" stroke-width="0.014" stroke-miterlimit="3.864" id="path1720" d="m-187.72003,296.54117l11.116,-9.881l0,6.284c0,1.288 -1.41,2.817 -1.41,2.817l7.36,0c-1.527,-1.156 -1.388,-2.532 -1.388,-2.532l0.002,-17.044l-10.89,9.948l0.01,-6.08c0,-1.338 1.172,-2.285 1.172,-2.285l-7.041,0c1.343,0.894 1.068,2.527 1.068,2.527l0.001,16.246z"/>
   </g>
  </g>
 </g>
</svg>