<svg width="152" height="152" xmlns="http://www.w3.org/2000/svg">
 <g>
  <title>background</title>
  <rect x="-1" y="-1" width="154" height="154" id="canvas_background" fill="none"/>
 </g>

 <g>
  <title>Layer 1</title>
  <path d="m150,2l-148,0l0,148l148,0l0,-148zm-5.91921,143.15l-136.12489,0l0,-137.48l136.12489,0l0,137.48z" id="path9695" fill-rule="nonzero" fill="#c82128"/>
  <g id="svg_1">
   <path d="m17.88869,107.8895l116.22,0l0,29.76375l-116.22,0l0,-29.76375z" id="path9697" fill-rule="nonzero" fill="#233485"/>
   <path d="m123.47994,111.43325l-10.19375,0l0,22.6775l10.19375,0l0,-22.6775zm-12.485,11.34c0,-6.2625 -5.03875,-11.34 -11.25625,-11.34l-15.065,0l0,22.6775l15.065,0c6.2175,0 11.25625,-5.07625 11.25625,-11.3375m-9.36125,-0.001c0,2.7225 -2.06125,4.9275 -4.6075,4.9275l-2.1825,0l0,-9.855l2.185,0c2.54625,0 4.605,2.20625 4.605,4.9275m-38.17625,11.33875l19.25375,0l0,-6.55125l-8.90125,0l0,-16.12625l-10.3525,0l0,22.6775zm-11.6175,0l10.27875,0l-11.61625,-22.6775l-10.3675,0l-11.61625,22.6775l10.27875,0l1.0925,-2.38375l10.8575,0l1.0925,2.38375zm-4.1425,-8.3525l-4.75625,0l2.31875,-5.03375l2.4375,5.03375z" id="path9707" fill-rule="nonzero" fill="#ffffff"/>
   <path d="m50.46831,82.35l48.1625,0c0,0 3.55375,5.32375 3.80625,5.71375l-55.7275,0c0.54625,-0.8975 3.75875,-5.71375 3.75875,-5.71375m25.02225,-68.00325l-46.07125,69.335c-2.885,4.31 -4.535,7.52875 -4.65,12.335c-0.0675,2.8075 0.795,6.28625 2.0925,9.03875l9.77,0c-1.57125,-2.89125 -2.3975,-5.9175 -2.33125,-9.28375c0.0725,-3.81 1.64875,-6.25875 3.80375,-9.49375l47.61375,-71.93125l-10.2275,0zm39.87825,90.70863c1.5725,-2.89125 2.3975,-5.9175 2.33125,-9.28375c-0.0725,-3.81 -1.64875,-6.25875 -3.80375,-9.49375l-31.49,-47.28125l5.125,-7.7325l35.05,52.4175c2.885,4.31 4.535,7.52875 4.65125,12.335c0.0662,2.80749 -0.7975,6.28624 -2.095,9.03874l-9.76875,0l0,0.00001z" id="path9731" fill-rule="nonzero" fill="#2490d7"/>
   <path d="m87.23856,14.34675l-47.9125,72.3825c-2.16,3.24 -3.60125,5.51125 -3.67,9.05875c-0.065,3.35625 0.79625,6.365 2.45,9.2675l9.05875,0c-2.095,-2.18 -3.59375,-5.74625 -3.3875,-9.495c0.0412,-0.7725 0.18625,-1.73625 0.415,-2.5075l60.9725,0c-0.41625,-1.2 -0.80125,-2.18875 -1.84625,-3.61375l-57.42625,0c0.6625,-1.15375 1.53375,-2.525 2.35,-3.74875l3.14375,-4.715l46.32625,0l-2.53625,-3.80625l-41.2525,0l41.56,-62.8225l-8.245,0zm-21.71737,0l-44.75875,67.62625c-3.40125,5.1025 -4.9975,8.08125 -4.99875,12.82125c0,5.40375 1.44,7.78375 2.53625,10.26125l7.14875,0c-0.19,-0.4225 -0.3925,-0.90375 -0.5925,-1.435c-0.76125,-2.0125 -1.5125,-4.7525 -1.44375,-7.62375c0.12,-5.03625 1.87125,-8.4125 4.785,-12.7675l45.77,-68.8825l-8.44625,0zm39.31525,90.70863c2.095,-2.18001 3.59375,-5.74625 3.38625,-9.495c-0.17375,-3.20625 -2.125,-6.3625 -4.46375,-9.87l-26.25375,-39.3725l4.01875,-6.0375l30.9625,46.44875c2.15875,3.24 3.6,5.51125 3.66875,9.05875c0.0637,3.35624 -0.79625,6.36499 -2.45125,9.26749l-8.8675,0l0,0.00001zm21.74737,0c0.25875,-0.55875 0.38625,-0.89126 0.58626,-1.42375c0.7625,-2.01125 1.67625,-4.76375 1.60749,-7.635c-0.12,-5.03625 -1.87124,-8.4125 -4.7875,-12.76625l-35.625,-53.20125l4.12125,-6.175l38.7525,58.11875c3.40125,5.105 4.9975,8.08125 4.9975,12.8225c0,5.40124 -1.44,7.78374 -2.53625,10.25999l-7.11625,0l0,0.00001z" id="path9735" fill-rule="nonzero" fill="#233485"/>
  </g>
 </g>
</svg>