<?xml version="1.0" encoding="UTF-8" standalone="no"?>      
<svg
   height="100%" width="auto"
   viewBox="0 0 147.5 155"
   xmlns:svg="http://www.w3.org/2000/svg"
   xmlns="http://www.w3.org/2000/svg"
   version="1.1"   
   id="svg9778">
  <defs
     id="defs9780" />
  <path
     d="m 0,154.48875 147.40125,0 L 147.40125,0 0,0 0,154.48875 z"
     id="path9693"
     style="fill:#ffffff;fill-opacity:1;fill-rule:nonzero;stroke:none" />
  <path
     d="m 144.5675,2.835 -141.7325,0 0,148.81875 141.7325,0 0,-148.81875 z m -5.67,143.15 -130.39375,0 0,-137.48 130.39375,0 0,137.48 z"
     id="path9695"
     style="fill:#c82128;fill-opacity:1;fill-rule:nonzero;stroke:none" />
  <path
     d="m 15.59,109.13375 116.22,0 0,29.76375 -116.22,0 0,-29.76375 z"
     id="path9697"
     style="fill:#233485;fill-opacity:1;fill-rule:nonzero;stroke:none" />
  <path
     d="m 121.18125,112.6775 -10.19375,0 0,22.6775 10.19375,0 0,-22.6775 z m -12.485,11.34 c 0,-6.2625 -5.03875,-11.34 -11.25625,-11.34 l -15.065,0 0,22.6775 15.065,0 c 6.2175,0 11.25625,-5.07625 11.25625,-11.3375 m -9.36125,-0.001 c 0,2.7225 -2.06125,4.9275 -4.6075,4.9275 l -2.1825,0 0,-9.855 2.185,0 c 2.54625,0 4.605,2.20625 4.605,4.9275 m -38.17625,11.33875 19.25375,0 0,-6.55125 -8.90125,0 0,-16.12625 -10.3525,0 0,22.6775 z m -11.6175,0 10.27875,0 -11.61625,-22.6775 -10.3675,0 -11.61625,22.6775 10.27875,0 1.0925,-2.38375 10.8575,0 1.0925,2.38375 z m -4.1425,-8.3525 -4.75625,0 2.31875,-5.03375 2.4375,5.03375 z"
     id="path9707"
     style="fill:#ffffff;fill-opacity:1;fill-rule:nonzero;stroke:none" />
  <path
     d="m 48.16962,83.59425 48.1625,0 c 0,0 3.55375,5.32375 3.80625,5.71375 l -55.7275,0 c 0.54625,-0.8975 3.75875,-5.71375 3.75875,-5.71375 M 73.19187,15.591 27.12062,84.926 c -2.885,4.31 -4.535,7.52875 -4.65,12.335 -0.0675,2.8075 0.795,6.28625 2.0925,9.03875 l 9.77,0 c -1.57125,-2.89125 -2.3975,-5.9175 -2.33125,-9.28375 0.0725,-3.81 1.64875,-6.25875 3.80375,-9.49375 L 83.41937,15.591 l -10.2275,0 z m 39.87825,90.70863 c 1.5725,-2.89125 2.3975,-5.9175 2.33125,-9.28375 -0.0725,-3.81 -1.64875,-6.25875 -3.80375,-9.49375 l -31.49,-47.28125 5.125,-7.7325 35.05,52.4175 c 2.885,4.31 4.535,7.52875 4.65125,12.335 0.0662,2.80749 -0.7975,6.28624 -2.095,9.03874 l -9.76875,0 z"
     id="path9731"
     style="fill:#2490d7;fill-opacity:1;fill-rule:nonzero;stroke:none" />
  <path
     d="m 84.93987,15.591 -47.9125,72.3825 c -2.16,3.24 -3.60125,5.51125 -3.67,9.05875 -0.065,3.35625 0.79625,6.365 2.45,9.2675 l 9.05875,0 c -2.095,-2.18 -3.59375,-5.74625 -3.3875,-9.495 0.0412,-0.7725 0.18625,-1.73625 0.415,-2.5075 l 60.9725,0 c -0.41625,-1.2 -0.80125,-2.18875 -1.84625,-3.61375 l -57.42625,0 c 0.6625,-1.15375 1.53375,-2.525 2.35,-3.74875 l 3.14375,-4.715 46.32625,0 -2.53625,-3.80625 -41.2525,0 41.56,-62.8225 -8.245,0 z m -21.71737,0 -44.75875,67.62625 c -3.40125,5.1025 -4.9975,8.08125 -4.99875,12.82125 0,5.40375 1.44,7.78375 2.53625,10.26125 l 7.14875,0 c -0.19,-0.4225 -0.3925,-0.90375 -0.5925,-1.435 -0.76125,-2.0125 -1.5125,-4.7525 -1.44375,-7.62375 0.12,-5.03625 1.87125,-8.4125 4.785,-12.7675 l 45.77,-68.8825 -8.44625,0 z m 39.31525,90.70863 c 2.095,-2.18001 3.59375,-5.74625 3.38625,-9.495 -0.17375,-3.20625 -2.125,-6.3625 -4.46375,-9.87 l -26.25375,-39.3725 4.01875,-6.0375 30.9625,46.44875 c 2.15875,3.24 3.6,5.51125 3.66875,9.05875 0.0637,3.35624 -0.79625,6.36499 -2.45125,9.26749 l -8.8675,0 z m 21.74737,0 c 0.25875,-0.55875 0.38625,-0.89126 0.58626,-1.42375 0.7625,-2.01125 1.67625,-4.76375 1.60749,-7.635 -0.12,-5.03625 -1.87124,-8.4125 -4.7875,-12.76625 l -35.625,-53.20125 4.12125,-6.175 38.7525,58.11875 c 3.40125,5.105 4.9975,8.08125 4.9975,12.8225 0,5.40124 -1.44,7.78374 -2.53625,10.25999 l -7.11625,0 z"
     id="path9735"
     style="fill:#233485;fill-opacity:1;fill-rule:nonzero;stroke:none" />
</svg>
