<svg width="610" height="610" xmlns="http://www.w3.org/2000/svg">
 <defs>
  <style>.cls-1{fill:#cc071e;}.cls-2{fill:#fff;}</style>
 </defs>
 <g>
  <title>Layer 1</title>
  <g id="svg_3">
   <rect x="-1" y="-1" width="612" height="612" id="canvas_background" fill="none"/>
  </g>
  <g id="svg_4">
   <rect class="cls-1" width="599.81" height="600" id="svg_1" y="5" stroke="null" x="5.095"/>
   <path class="cls-2" d="m69.655,375.86999c7.92,0 11.67,-3.75 11.67,-11.46l0,-42.1l0.42,0l24.6,42.3c4.59,7.92 8.55,11.26 15.63,11.26l24.8,0c6,0 11,-2.29 11,-7.09q0,-2.81 -2.5,-6.88l-30.43,-45c19.64,-7.29 28.18,-21.29 28.18,-37.95c0,-28.14 -16.67,-44.81 -60.44,-44.81l-42.73,0c-7.76,-0.01 -11.46,3.75 -11.46,11.67l0,118.6c0,7.71 3.75,11.46 11.46,11.46l19.8,0zm11.67,-79.62l0,-29.64l9.17,0c12.3,0 17.51,5.21 17.51,14.8s-5.21,14.84 -17.51,14.84l-9.17,0zm180.92,79.62c7.92,0 11.67,-3.75 11.67,-11.46l0,-10.22c0,-7.92 -3.75,-11.67 -11.67,-11.67l-46.69,0l0,-21.26l34.18,0c7.92,0 11.67,-3.75 11.67,-11.46l0,-10.19c0,-7.92 -3.75,-11.67 -11.67,-11.67l-34.18,0l0,-20.46l40.44,0c7.92,0 11.67,-3.75 11.67,-11.46l0,-10.21c0,-7.92 -3.75,-11.67 -11.67,-11.67l-72.74,0c-7.71,0 -11.46,3.75 -11.46,11.67l0,118.6c0,7.71 3.75,11.46 11.46,11.46l78.99,0zm130.85,-130.48c-1.67,-7.92 -5.63,-11.26 -14.38,-11.26l-17.67,0c-8.75,0 -12.71,3.33 -14.38,11.26l-14.18,69.62l-0.39,0l-11.49,-69.62c-1.25,-7.92 -5.21,-11.26 -14.38,-11.26l-17.13,0c-7.09,0 -11,3.13 -11,9.38a20,20 0 0 0 0.63,4.58l27.3,116.3c1.88,7.71 5.63,11.46 15.42,11.46l17.09,0c8.75,0 12.71,-3.34 14.38,-11.26l15.63,-76.08l0.42,0l15.63,76.1c1.67,7.92 5.63,11.26 14.38,11.26l17.12,0c9.8,0 13.55,-3.75 15.42,-11.46l27.3,-116.3a19.9,19.9 0 0 0 0.63,-4.58c0,-6.25 -4.17,-9.38 -11,-9.38l-14.66,0c-9.17,0 -13.13,3.33 -14.38,11.26l-11.47,69.6l-0.42,0l-14.42,-69.62zm167.21,130.48c7.92,0 11.67,-3.75 11.67,-11.46l0,-10.22c0,-7.92 -3.75,-11.67 -11.67,-11.67l-46.69,0l0,-21.26l34.18,0c7.92,0 11.67,-3.75 11.67,-11.46l0,-10.19c0,-7.92 -3.75,-11.67 -11.67,-11.67l-34.18,0l0,-20.46l40.48,0c7.92,0 11.67,-3.75 11.67,-11.46l0,-10.21c0,-7.92 -3.75,-11.67 -11.67,-11.67l-72.79,0c-7.71,0 -11.46,3.75 -11.46,11.67l0,118.6c0,7.71 3.75,11.46 11.46,11.46l79,0z" id="svg_2"/>
  </g>
 </g>
</svg>