<svg width="40" height="40" xmlns="http://www.w3.org/2000/svg">
 <g>
  <title>background</title>
  <rect fill="none" id="canvas_background" height="6.99999" width="6.99999" y="-1" x="-1"/>
 </g>

 <g>
  <title>Layer 1</title>
  <path stroke="null" d="m0.5,39.5l39,0l0,-39l-39,0l0,39l0,-12l0,12z" fill="#ffe300" id="svg_2"/>
  <path stroke="#027abf" id="svg_3" stroke-miterlimit="4" fill="none" d="m2,1l37,0l0,38l-38,0l0,-38l38,0l-38,0l1,0z"/>
  <path stroke="null" fill="#027abf" id="svg_5" d="m7.6485,4.282l24.703,0l0,6.5352l-17.078,0l0,2.5508l17.078,0l0,6.5352l-17.078,0l0,2.5469l17.078,0l0,6.5352l-24.703,0l0,-24.7033z"/>
  <g stroke="null" id="svg_15">
   <path stroke="null" fill="#027abf" id="svg_6" d="m12.85472,31.512l2.5938,0c1.2031,0.0039 2.1758,0.98437 2.1797,2.1836c0.004,1.207 -0.97266,2.1953 -2.1797,2.1992l-2.5938,0l0,-4.3828z"/>
   <path stroke="null" fill="#027abf" id="svg_7" d="m23.39472,31.512l1.3516,0l0,1.6719l1.5273,-1.6719l1.7773,0l-1.7226,1.8672l1.8672,2.5156l-1.7188,0l-1.0976,-1.4922l-0.63281,0.65625l0,0.83594l-1.3516,0l0.00001,-4.38279z"/>
   <path stroke="null" fill="#027abf" id="svg_8" d="m29.79472,31.512l2.0195,0l1.5078,4.3828l-1.3633,0l-0.28125,-0.90234l-1.7383,0l-0.29688,0.90234l-1.3516,0l1.50403,-4.3828z"/>
   <path stroke="null" id="svg_10" fill="#ffe300" d="m30.28472,33.965l1.0352,0l-0.51953,-1.4844l-0.51567,1.4844z"/>
   <path stroke="null" id="svg_11" fill="#ffe300" d="m14.20472,32.672l1.0625,0c0.57031,0 1.0352,0.46094 1.0352,1.0312c0,0.57031 -0.46485,1.0352 -1.0352,1.0352l-1.0625,0l0,-2.0664z"/>
   <path stroke="null" id="svg_12" fill="#027abf" d="m7.64472,31.508l4.3828,0l0,1.1406l-3.0312,0l0,0.48438l3.0312,0l0,1.1406l-3.0312,0l0,0.48047l3.0312,0l0,1.1406l-4.3828,0l0,-4.38665z"/>
   <path stroke="null" id="svg_13" fill="#027abf" d="m18.21472,31.508l4.3867,0l0,1.1406l-3.0312,0l0,0.48438l3.0312,0l0,1.1406l-3.0312,0l0,0.48047l3.0312,0l0,1.1406l-4.3867,0l0,-4.38665z"/>
  </g>
 </g>
</svg>